Seasick Steve & John Paul Jones - Cropredy Festival Oxfordshire UK 08-12-2011

Broadcast Sky Arts HD 10th sept 2011
(DVD -chevy1989)

Fallin' Off A Rock
My Donny
Thunderbird
Walkin' Man
Prospect Lane
Interview
Burnin' Up
Never Go West
I'm So Lonesome I Could Cry
What A Way To Go
Back In The Doghouse
Don't Know Why She Love Me
Interview
You Can't Teach An Old Dog New Tricks
It's A Long Way
Interview
Dog House Boogie

Time 1H 19 m

Mediainfo:

General
Unique ID                        : 201996182408965856009593715841853041903 (0x97F70CB4E6B57D7A941EDF2E09B02CEF)
Complete name                    : E:\Down\Seasick Steve & John Paul Jones - Cropredy Festival Oxfordshire (08-12-2011).mkv
Format                           : Matroska
File size                        : 998 MiB
Duration                         : 1h 19mn
Overall bit rate                 : 1 763 Kbps
Encoded date                     : UTC 2011-09-22 18:35:41
Writing application              : mkvmerge v3.3.0 ('Language') built on Mar 24 2010 14:59:24
Writing library                  : libebml v0.8.0 + libmatroska v0.9.0

Video
ID                               : 1
Format                           : AVC
Format/Info                      : Advanced Video Codec
Format profile                   : High@L3.1
Format settings, CABAC           : Yes
Format settings, ReFrames        : 8 frames
Codec ID                         : V_MPEG4/ISO/AVC
Duration                         : 1h 19mn
Bit rate                         : 1 377 Kbps
Width                            : 712 pixels
Height                           : 568 pixels
Display aspect ratio             : 16:9
Frame rate                       : 25.000 fps
Color space                      : YUV
Chroma subsampling               : 4:2:0
Bit depth                        : 8 bits
Scan type                        : Progressive
Bits/(Pixel*Frame)               : 0.136
Stream size                      : 761 MiB (76%)
Writing library                  : x264 core 92 r1510 33d382a
Encoding settings                : cabac=1 / ref=8 / deblock=1:-1:-1 / analyse=0x3:0x113 / me=umh / subme=7 / psy=1 / psy_rd=1.00:0.20 / mixed_ref=1 / me_range=16 / chroma_me=1 / trellis=2 / 8x8dct=1 / cqm=0 / deadzone=21,11 / fast_pskip=0 / chroma_qp_offset=-3 / threads=4 / sliced_threads=0 / nr=0 / decimate=0 / interlaced=0 / constrained_intra=0 / bframes=3 / b_pyramid=2 / b_adapt=2 / b_bias=0 / direct=3 / wpredb=1 / wpredp=2 / keyint=250 / keyint_min=25 / scenecut=40 / intra_refresh=0 / rc_lookahead=50 / rc=2pass / mbtree=1 / bitrate=1377 / ratetol=1.0 / qcomp=0.60 / qpmin=10 / qpmax=51 / qpstep=4 / cplxblur=20.0 / qblur=0.5 / vbv_maxrate=17500 / vbv_bufsize=14000 / ip_ratio=1.40 / aq=1:1.00 / nal_hrd=none

Audio
ID                               : 2
Format                           : AC-3
Format/Info                      : Audio Coding 3
Mode extension                   : CM (complete main)
Codec ID                         : A_AC3
Duration                         : 1h 19mn
Bit rate mode                    : Constant
Bit rate                         : 384 Kbps
Channel(s)                       : 6 channels
Channel positions                : Front: L C R, Side: L R, LFE
Sampling rate                    : 48.0 KHz
Bit depth                        : 16 bits
Compression mode                 : Lossy
Stream size                      : 217 MiB (22%)
 
Enjoy!